bw_sq_140_01
version=1
nRows=16
nColumns=46
inDegrees=yes
endheader
time	ground_force3_vx	ground_force3_vy	ground_force3_vz	ground_force3_px	ground_force3_py	ground_force3_pz	ground_torque3_x	ground_torque3_y	ground_torque3_z	ground_force5_vx	ground_force5_vy	ground_force5_vz	ground_force5_px	ground_force5_py	ground_force5_pz	ground_torque5_x	ground_torque5_y	ground_torque5_z	ground_force4_vx	ground_force4_vy	ground_force4_vz	ground_force4_px	ground_force4_py	ground_force4_pz	ground_torque4_x	ground_torque4_y	ground_torque4_z	ground_force1_vx	ground_force1_vy	ground_force1_vz	ground_force1_px	ground_force1_py	ground_force1_pz	ground_torque1_x	ground_torque1_y	ground_torque1_z	ground_force2_vx	ground_force2_vy	ground_force2_vz	ground_force2_px	ground_force2_py	ground_force2_pz	ground_torque2_x	ground_torque2_y	ground_torque2_z
2.282000	-0.000000	-0.000000	0.000000	0.200000	0.000000	-0.300000	0.000000	0.000000	-0.000000	1.536735	419.092712	137.355469	0.201774	0.000000	-1.581684	-0.000000	0.831236	0.000003	2.305491	366.871582	-121.019470	0.201983	0.000000	-0.841248	0.000009	0.572675	0.000002	-0.000000	-0.000000	0.000000	0.200000	0.000000	0.904000	0.000000	0.000000	-0.000000	-0.000000	-0.000000	0.000000	0.400000	0.000000	0.302000	0.000000	0.000000	-0.000000	
2.283000	-0.000000	-0.000000	0.000000	0.200000	0.000000	-0.300000	0.000000	0.000000	-0.000000	1.859160	417.820129	137.515656	0.202350	0.000000	-1.580705	0.000038	0.606187	0.000002	3.112249	368.156860	-121.503113	0.201460	0.000000	-0.840849	0.000025	0.444431	-0.000001	-0.000000	-0.000000	0.000000	0.200000	0.000000	0.904000	0.000000	0.000000	-0.000000	-0.000000	-0.000000	0.000000	0.400000	0.000000	0.302000	0.000000	0.000000	-0.000000	
2.284000	-0.000000	-0.000000	0.000000	0.200000	0.000000	-0.300000	0.000000	0.000000	-0.000000	1.215328	418.135345	137.355804	0.202006	0.000000	-1.581716	0.000063	0.798567	0.000002	2.952750	369.759003	-121.986755	0.201333	0.000000	-0.842686	-0.000005	0.491876	0.000002	-0.000000	-0.000000	0.000000	0.200000	0.000000	0.904000	0.000000	0.000000	-0.000000	-0.000000	-0.000000	0.000000	0.400000	0.000000	0.302000	0.000000	0.000000	-0.000000	
2.285000	-0.000000	-0.000000	0.000000	0.200000	0.000000	-0.300000	0.000000	0.000000	-0.000000	1.537244	420.369934	138.319687	0.202125	0.000000	-1.580436	0.000034	0.718521	0.000004	2.954294	369.120544	-122.307823	0.201126	0.000000	-0.841280	-0.000002	0.574480	0.000003	-0.000000	-0.000000	0.000000	0.200000	0.000000	0.904000	0.000000	0.000000	-0.000000	-0.000000	-0.000000	0.000000	0.400000	0.000000	0.302000	0.000000	0.000000	-0.000000	
2.286000	-0.000000	-0.000000	0.000000	0.200000	0.000000	-0.300000	0.000000	0.000000	-0.000000	2.019864	417.502899	138.480896	0.202628	0.000000	-1.582002	0.000055	0.698419	0.000004	2.305491	366.873230	-121.825195	0.201569	0.000000	-0.841690	0.000028	0.503191	0.000006	-0.000000	-0.000000	0.000000	0.200000	0.000000	0.904000	0.000000	0.000000	-0.000000	-0.000000	-0.000000	0.000000	0.400000	0.000000	0.302000	0.000000	0.000000	-0.000000	
2.287000	-0.000000	-0.000000	0.000000	0.200000	0.000000	-0.300000	0.000000	0.000000	-0.000000	1.859160	417.501221	137.998947	0.202256	0.000000	-1.582060	0.000023	0.750471	0.000002	3.113793	369.437439	-122.146271	0.201251	0.000000	-0.842153	0.000023	0.519043	0.000002	-0.000000	-0.000000	0.000000	0.200000	0.000000	0.904000	0.000000	0.000000	-0.000000	-0.000000	-0.000000	0.000000	0.400000	0.000000	0.302000	0.000000	0.000000	-0.000000	
2.288000	-0.000000	-0.000000	0.000000	0.200000	0.000000	-0.300000	0.000000	0.000000	-0.000000	1.537244	419.093018	138.640747	0.202124	0.000000	-1.582134	0.000067	0.676918	-0.000002	2.627576	369.116547	-122.950974	0.201701	0.000000	-0.841028	0.000005	0.535429	0.000005	-0.000000	-0.000000	0.000000	0.200000	0.000000	0.904000	0.000000	0.000000	-0.000000	-0.000000	-0.000000	0.000000	0.400000	0.000000	0.302000	0.000000	0.000000	-0.000000	
2.289000	-0.000000	-0.000000	0.000000	0.200000	0.000000	-0.300000	0.000000	0.000000	-0.000000	1.697948	418.133667	138.801956	0.201708	0.000000	-1.581552	0.000039	0.812705	0.000005	2.466533	371.040619	-122.630936	0.201465	0.000000	-0.841304	0.000007	0.450423	0.000001	-0.000000	-0.000000	0.000000	0.200000	0.000000	0.904000	0.000000	0.000000	-0.000000	-0.000000	-0.000000	0.000000	0.400000	0.000000	0.302000	0.000000	0.000000	-0.000000	
2.290000	-0.000000	-0.000000	0.000000	0.200000	0.000000	-0.300000	0.000000	0.000000	-0.000000	1.858651	419.732147	139.122681	0.201983	0.000000	-1.581658	0.000021	0.716290	0.000004	3.112248	369.117218	-123.759766	0.201355	0.000000	-0.842140	0.000024	0.352624	0.000004	-0.000000	-0.000000	0.000000	0.200000	0.000000	0.904000	0.000000	0.000000	-0.000000	-0.000000	-0.000000	0.000000	0.400000	0.000000	0.302000	0.000000	0.000000	-0.000000	
2.291000	-0.000000	-0.000000	0.000000	0.200000	0.000000	-0.300000	0.000000	0.000000	-0.000000	1.536735	418.135345	139.605316	0.202043	0.000000	-1.581457	0.000039	0.790267	0.000006	2.949661	370.397461	-123.274078	0.201738	0.000000	-0.841617	0.000020	0.455257	0.000002	-0.000000	-0.000000	0.000000	0.200000	0.000000	0.904000	0.000000	0.000000	-0.000000	-0.000000	-0.000000	0.000000	0.400000	0.000000	0.302000	0.000000	0.000000	-0.000000	
2.292000	-0.000000	-0.000000	0.000000	0.200000	0.000000	-0.300000	0.000000	0.000000	-0.000000	1.376031	420.689819	139.445114	0.202360	0.000000	-1.582183	-0.000011	0.783509	0.000007	3.271747	370.391724	-124.401901	0.202196	0.000000	-0.842435	0.000016	0.446752	0.000003	-0.000000	-0.000000	0.000000	0.200000	0.000000	0.904000	0.000000	0.000000	-0.000000	-0.000000	-0.000000	0.000000	0.400000	0.000000	0.302000	0.000000	0.000000	-0.000000	
2.293000	-0.000000	-0.000000	0.000000	0.200000	0.000000	-0.300000	0.000000	0.000000	-0.000000	1.375522	422.601471	139.444427	0.202529	0.000000	-1.581228	0.000028	0.748505	0.000002	3.110703	371.997925	-124.079819	0.201649	0.000000	-0.841817	0.000029	0.402813	0.000000	-0.000000	-0.000000	0.000000	0.200000	0.000000	0.904000	0.000000	0.000000	-0.000000	-0.000000	-0.000000	0.000000	0.400000	0.000000	0.302000	0.000000	0.000000	-0.000000	
2.294000	-0.000000	-0.000000	0.000000	0.200000	0.000000	-0.300000	0.000000	0.000000	-0.000000	1.215837	420.369263	140.408661	0.201731	0.000000	-1.581988	0.000017	0.708809	0.000003	3.435878	370.400146	-124.078796	0.201592	0.000000	-0.840380	0.000002	0.523999	0.000003	-0.000000	-0.000000	0.000000	0.200000	0.000000	0.904000	0.000000	0.000000	-0.000000	-0.000000	-0.000000	0.000000	0.400000	0.000000	0.302000	0.000000	0.000000	-0.000000	
2.295000	-0.000000	-0.000000	0.000000	0.200000	0.000000	-0.300000	0.000000	0.000000	-0.000000	1.537244	421.007660	140.569534	0.202115	0.000000	-1.581846	0.000032	0.713224	0.000006	2.949661	371.037567	-124.079819	0.201732	0.000000	-0.840824	0.000012	0.438616	0.000005	-0.000000	-0.000000	0.000000	0.200000	0.000000	0.904000	0.000000	0.000000	-0.000000	-0.000000	-0.000000	0.000000	0.400000	0.000000	0.302000	0.000000	0.000000	-0.000000	
2.296000	-0.000000	-0.000000	0.000000	0.200000	0.000000	-0.300000	0.000000	0.000000	-0.000000	1.537754	421.008362	140.730408	0.202467	0.000000	-1.581528	0.000062	0.618707	0.000002	3.109159	372.957275	-124.401901	0.201949	0.000000	-0.841517	0.000010	0.376689	0.000008	-0.000000	-0.000000	0.000000	0.200000	0.000000	0.904000	0.000000	0.000000	-0.000000	-0.000000	-0.000000	0.000000	0.400000	0.000000	0.302000	0.000000	0.000000	-0.000000	
2.297000	-0.000000	-0.000000	0.000000	0.200000	0.000000	-0.300000	0.000000	0.000000	-0.000000	1.214818	420.690796	140.891281	0.202516	0.000000	-1.582314	0.000025	0.783667	0.000003	2.461901	370.721069	-124.883514	0.201565	0.000000	-0.840368	0.000006	0.350574	0.000003	-0.000000	-0.000000	0.000000	0.200000	0.000000	0.904000	0.000000	0.000000	-0.000000	-0.000000	-0.000000	0.000000	0.400000	0.000000	0.302000	0.000000	0.000000	-0.000000	
